<?xml version="1.0" encoding="utf-8"?>
<!-- Generator: Adobe Illustrator 22.0.1, SVG Export Plug-In . SVG Version: 6.00 Build 0)  -->
<svg version="1.1" id="Capa_1" xmlns="http://www.w3.org/2000/svg" xmlns:xlink="http://www.w3.org/1999/xlink" x="0px" y="0px"
	 viewBox="0 0 1499 1499" style="enable-background:new 0 0 1499 1499;" xml:space="preserve">
<style type="text/css">
	.st0{display:none;}
	.st1{display:inline;}
	.st2{display:inline;opacity:0.63;clip-path:url(#SVGID_2_);}
	.st3{display:none;fill:#245B6F;}
	.st4{clip-path:url(#SVGID_6_);fill:#FFFFFF;}
</style>
<g class="st0">
	<defs>
		<rect id="SVGID_1_" width="1499" height="1499"/>
	</defs>
	<clipPath id="SVGID_2_" class="st1">
		<use xlink:href="#SVGID_1_"  style="overflow:visible;"/>
	</clipPath>
	<g class="st2">
		<g>
			<defs>
				<rect id="SVGID_3_" width="1499" height="1499"/>
			</defs>
			<clipPath id="SVGID_4_">
				<use xlink:href="#SVGID_3_"  style="overflow:visible;"/>
			</clipPath>
		</g>
	</g>
</g>
<rect class="st3" width="1499" height="1499"/>
<g>
	<defs>
		<rect id="SVGID_5_" width="1499" height="1499"/>
	</defs>
	<clipPath id="SVGID_6_">
		<use xlink:href="#SVGID_5_"  style="overflow:visible;"/>
	</clipPath>
	<path class="st4" d="M829,1080v-9c0,0,5-6,9-6c0,0,83-2,95,46c0,0,16,33-77,84c0,0-76,46-215,39c0,0-138,4-255-101
		c0,0-158-129-121-359c0,0,17-262,280-274c0,0,194-34,307,167c0,0,42-133,188-134c0,0,231-19,249,227c0,0,29,237-268,232l-545,2
		c0,0-34-13,5-86c0,0,21-24,68-21l434,2c0,0,247,22,209-150c0,0-18-103-144-105c0,0-149,4-144,181c0,0-13,27-74,24c0,0-20,5-28-23
		c0,0,8-200-234-217c0,0-218,1-206,262c0,0,15,163,120,221c0,0,81,58,211,52C693,1134,808,1120,829,1080"/>
	<path class="st4" d="M587,362c0,40.3-32.7,73-73,73c-40.3,0-73-32.7-73-73c0-40.3,32.7-73,73-73C554.3,289,587,321.7,587,362"/>
	<path class="st4" d="M1110,365c0,42-32.7,76-73,76c-40.3,0-73-34-73-76s32.7-76,73-76C1077.3,289,1110,323,1110,365"/>
</g>
</svg>
