<?xml version="1.0" encoding="utf-8"?>
<!-- Generator: Adobe Illustrator 22.0.1, SVG Export Plug-In . SVG Version: 6.00 Build 0)  -->
<svg version="1.1" id="Capa_1" xmlns="http://www.w3.org/2000/svg" xmlns:xlink="http://www.w3.org/1999/xlink" x="0px" y="0px"
	 viewBox="0 0 1133.9 1133.9" style="enable-background:new 0 0 1133.9 1133.9;" xml:space="preserve">
<style type="text/css">
	
		.st0{display:none;fill-rule:evenodd;clip-rule:evenodd;fill:#005269;stroke:#005269;stroke-width:0.5669;stroke-miterlimit:22.9256;}
	.st1{fill-rule:evenodd;clip-rule:evenodd;fill:#FFFFFF;}
</style>
<rect class="st0" width="1133.9" height="1133.9"/>
<g>
	<path class="st1" d="M378.5,800.5c42.3,23.1,83.5,31.2,139,29.3c38.3-3.7,90.8-16.5,117.2-47c33.4-38.5-36.5-49.6-44.6-46.4
		c-9.2,5.3,5.7,7.9-19.4,21.3c-59.3,31.5-159.7,17-205.9-36.5c-37.4-43.4-50.8-130.3-22.5-183.5c51.8-97.5,208.3-70.4,228.1,43.8
		c2.6,15.2-2.4,25,12,28.6c10.3,2.5,25.4-0.1,34.1-4.2c12.7-5.9,10.1-12.4,11.7-27.3c6-57.2,51.9-95.7,111.5-76.9
		c44,13.8,61.2,66.5,43.1,99.7c-20,36.7-69.5,36.3-119.6,36.3l-235,0c-12.7,0-23,0.2-31.1,7.3c-11,9.7-22.6,41.2-7.5,51.3
		c0.9,0.6,209.1-1.1,228-1.1c84.3,0,174.7,6,208.3-57.5c30.6-58,18-144.4-52.6-183.2c-46.5-25.5-120.4-15.7-149.9,19.5
		c-18.7,22.3-19.2,35.3-24.4,41.9c-3.6-3.9-6.8-10-9.4-14.5c-19-31.7-53.9-58.9-90-70.6c-49.7-16.1-112.4-9.3-151,15.2
		c-35.3,22.5-61.9,56.3-72.4,111.8C258.1,653.7,290.6,752.4,378.5,800.5z"/>
	
		<ellipse transform="matrix(0.9735 -0.2288 0.2288 0.9735 -68.3727 103.2624)" class="st1" cx="411.2" cy="346.6" rx="40.9" ry="40.9"/>
	
		<ellipse transform="matrix(0.378 -0.9258 0.9258 0.378 114.1942 865.757)" class="st1" cx="701.4" cy="347.9" rx="40.9" ry="40.9"/>
</g>
</svg>
